<?xml version="1.0" encoding="UTF-8"?>
<svg version="1.1" viewBox="0 0 1392 1200" width="1280" height="1280" xmlns="http://www.w3.org/2000/svg">
<path transform="translate(0)" d="m0 0h1392v1200h-1392z" fill="#FAF9F9"/>
<path transform="translate(458,288)" d="m0 0h527l74 1v9l-5 53-12 137-6 64-7 81-13 144-7 80-10 112-5 59-3 3-28 8-119 33-105 29-35 10-3 1h-10l-29-8-42-12-155-43-43-12-22-7-2-2-5-56-18-203-7-77-10-114-16-178-5-56-5-54 1-1z" fill="#E24F26"/>
<path transform="translate(473,440)" d="m0 0h206l244 1v14l-6 62-2 14h-347l7 74 1 19h330l1 1v10l-3 32-10 113-9 97-2 26-21 7-127 35-35 10h-7l-26-7-150-42-8-3-1-2-9-103-3-37 1-1h89l2 1 2 14 5 52 1 5 24 7 45 12 28 8 8-1 47-13 44-12 4-2 9-99 2-17-313 1-2-1-6-62-13-147-5-56v-9z" fill="#FBFAFA"/>
<path transform="translate(735,346)" d="m0 0 7 1h36l14 1 7-1 31 1 3-1 17 1 16-1 4 1h32l83-1 6 2 1 1v12l-2 31-1 10-1 20-2 17-1 14-1 7-2 24-1 8-3 35-1 15-1 5-2 25-3 33-1 12-3 32-2 17-3 39-2 17-1 16-3 32-1 13-2 21-1 11-1 17-2 12-1 20-2 16-1 10-2 27-2 18-1 17-4 29h-2v2l-10 3-15 5-12 3-18 5-12 4-17 4-14 4-11 3-14 4-19 5-24 7-15 4-18 5-15 4-17 4-6 1-1-9-1-56v-27l-2-2 14-3 32-9 65-18 58-16 19-6h2l1-26 11-120 8-90 3-32v-10h-231l-99-1-1-5-5-58-2-19v-11h347l2-22 6-68h-244v-1l31-1-14-2-2-7-1-13 1-13v-35l1-18 2-3h24l2 1 1-2 7 1z" fill="#EC642A"/>
<path transform="translate(703,88)" d="m0 0h48l5 6 12 20 12 19 3 2 1-6 6-10 11-18 6-10 1-3h51l1 1v130l-1 7-7 2h-40v-67l-3 3-11 19-15 22-4 2-12-19-12-18-5-8-2-1 1 13v44l-1 10h-45z" fill="#020101"/>
<path transform="translate(400,88)" d="m0 0h48v44l39-1 1-43h48v139l-1 1h-39l-8-1v-47h-40v40l-1 7-4 1h-43z" fill="#020101"/>
<path transform="translate(737,717)" d="m0 0h51l14 1 3 1 2-2v8l-4 39-6 67-5 3-91 25h-4l-1-2-1-16 1-29v-27l-1-9v-15l-1-27v-11l2-5z" fill="#EC642A"/>
<path transform="translate(568,532)" d="m0 0h130l-2 2-1 7 1 35v29l1 18 6-1 46 1v1l-53 1-120-1-1-5-5-58-2-19z" fill="#E24F26"/>
<path transform="translate(555,88)" d="m0 0h129v45l-1 1h-39v86l-1 7-4 1h-44v-93l-40-1z" fill="#020101"/>
<path transform="translate(880,88)" d="m0 0h47l1 1v91h64v48h-104l-7-1-1-1z" fill="#020101"/>
<path transform="translate(458,288)" d="m0 0h527l74 1v1l-454 1h-251l-21-1v-1z" fill="#ED652B"/>
<path transform="translate(889,831)" d="m0 0 2 2-1 22-2 16-1 9-1 21-2 5-16 6-25 7-28 8-15 4-12 3-21 6-12 3-11 3-17 5-16 4-2 1h-7l1-3 36-10 65-18 58-16 19-6h2l1-26 4-44z" fill="#E35226"/>
<path transform="translate(907,634)" d="m0 0 2 1v7l-2 12-1 21-2 18-2 29-2 15-2 30-2 16-2 3v-17l9-102 3-32z" fill="#E45327"/>
<path transform="translate(924,441)" d="m0 0 2 2v8l1 9-3 10-2 29-2 11-2 19-2 4-4-1h3l1-15 6-62z" fill="#E45427"/>
<path transform="translate(779,532)" d="m0 0h131l-2 2-17 1-32-1h-21l-59-1z" fill="#E24F26"/>
<path transform="translate(907,634)" d="m0 0 2 1v7l-2 12-1 21-2 16-2 6h-1l1-17 3-35 1-10z" fill="#E55627"/>
<path transform="translate(889,831)" d="m0 0 2 2-1 22-2 16-1 9-1 8-2 1v-12l4-44z" fill="#E45427"/>
<path transform="translate(893,787)" d="m0 0 2 3-1 21-1 11-2 8h-1v-17l2-24z" fill="#E45327"/>
<path transform="translate(778,835)" d="m0 0 4 1-8 3-37 10h-7l4-2 12-4 9-2z" fill="#E55527"/>
<path transform="translate(907,634)" d="m0 0 2 1v7l-2 12v7l-3 3v-10l2-19z" fill="#E65727"/>
<path transform="translate(899,732)" d="m0 0h1l-1 22-3 1v-10l1-10z" fill="#E55527"/>
<path transform="translate(796,819)" d="m0 0h1v12l-5 3-9 1 10-5z" fill="#E55527"/>
<path transform="translate(355,301)" d="m0 0 5 3v2h-4l-1 2-3-2-4 1-1-3 7-1z" fill="#ED652B"/>
<path transform="translate(905,663)" d="m0 0h1v12l-3 1v-9z" fill="#E45427"/>
<path transform="translate(744,844)" d="m0 0 4 2-11 3h-7l4-2z" fill="#E65727"/>
<path transform="translate(893,787)" d="m0 0 2 3v8l-3 1v-10z" fill="#E55627"/>
<path transform="translate(885,875)" d="m0 0 2 4-1 9-2 1v-12z" fill="#E65828"/>
<path transform="translate(889,831)" d="m0 0 2 2-1 9-2 1v-10z" fill="#E55627"/>
</svg>
